<?xml version="1.0" encoding="utf-8"?><svg viewBox="0 0 682.667 682.667" xmlns="http://www.w3.org/2000/svg" xmlns:xlink="http://www.w3.org/1999/xlink"><style>:root>svg{display:none}:root>svg:target{display:block}</style><svg viewBox="0 0 512 512.023" id="web1" xmlns="http://www.w3.org/2000/svg"><path d="M452.277 298.691h34.133v145.067h-34.133zm0 0" fill="#ced7db"/><path d="M503.477 256.023v25.598l-17.067 59.734h-34.133l-17.066-59.734v-25.598zm0 0" fill="#607d8a"/><path d="M477.879 256.023v25.598l-17.067 59.734h-8.535l-17.066-59.734v-25.598zm0 0" fill="#ced7db"/><path d="M401.078 59.758v256c0 18.851-15.281 34.133-34.133 34.133l-23.98-.086-308.82-1.024c-15.075-3.867-25.614-17.46-25.602-33.023v-256zm0 0" fill="#9d9d9d"/><path d="M375.477 59.758v256c.039 18.226-14.301 33.242-32.512 34.047l-308.82-1.024c-15.075-3.867-25.614-17.46-25.602-33.023v-256zm0 0" fill="#ced7db"/><path d="M401.078 42.691v34.133H8.543V42.691c0-18.851 15.285-34.136 34.137-34.136h324.265c18.852 0 34.133 15.285 34.133 34.136zm0 0" fill="#00828e"/><path d="M375.477 42.691v34.133H8.543V42.691c0-18.851 15.285-34.136 34.137-34.136h298.664c18.851 0 34.133 15.285 34.133 34.136zm0 0" fill="#00bbd3"/><path d="M59.746 42.691c0 4.711-3.82 8.532-8.535 8.532a8.532 8.532 0 0 1-8.531-8.532 8.533 8.533 0 1 1 17.066 0zm0 0" fill="#e64c3c"/><path d="M93.879 42.691c0 4.711-3.82 8.532-8.535 8.532a8.532 8.532 0 0 1-8.531-8.532 8.533 8.533 0 1 1 17.066 0zm0 0" fill="#f0c419"/><path d="M128.012 42.691c0 4.711-3.82 8.532-8.535 8.532a8.532 8.532 0 0 1-8.532-8.532 8.533 8.533 0 1 1 17.067 0zm0 0" fill="#14a085"/><path d="M366.945 42.691c0 4.711-3.82 8.532-8.535 8.532a8.532 8.532 0 0 1-8.531-8.532 8.533 8.533 0 1 1 17.066 0zm0 0" fill="#955ba5"/><path d="M51.21 110.957h307.2a8.533 8.533 0 0 1 8.535 8.531v85.336c0 4.711-3.82 8.531-8.535 8.531H51.21a8.532 8.532 0 0 1-8.53-8.53v-85.337c0-4.71 3.82-8.531 8.53-8.531zm0 0" fill="#c42828"/><path d="M341.344 119.488v85.336a8.59 8.59 0 0 1-8.106 8.531H51.211a8.532 8.532 0 0 1-8.531-8.53v-85.337c0-4.71 3.82-8.531 8.53-8.531h281.603c4.71 0 8.53 3.82 8.53 8.531zm0 0" fill="#f34335"/><path d="M208.309 196.8c4.183-.34 8.449-.51 12.714-.51 66.125.1 124.676 42.741 145.067 105.644a17.06 17.06 0 0 1-16.211 22.355h-2.305a55.727 55.727 0 0 1-15.187-2.047 17.162 17.162 0 0 0 8.105-20.308C321.523 243.535 269.477 202.14 208.31 196.8zm0 0M366.09 397.848c-21.848 67.394-87.168 110.918-157.781 105.129 61.168-5.34 113.214-46.735 132.183-105.13 2.531-7.882-.957-16.445-8.277-20.308a56.833 56.833 0 0 1 15.273-2.05h2.39a17.075 17.075 0 0 1 13.806 7.046 17.07 17.07 0 0 1 2.406 15.313zm0 0" fill="#4e342e"/><path d="M340.492 397.848c-18.969 58.394-71.015 99.789-132.183 105.129a16.37 16.37 0 0 1-2.047-.168c-78.817-8.063-138.59-74.711-138.063-153.934.531-79.227 61.196-145.07 140.11-152.074 61.168 5.34 113.214 46.734 132.183 105.133a17.162 17.162 0 0 1-8.105 20.308 81.265 81.265 0 0 1-20.992-9.133 42.176 42.176 0 0 0-30.125-5.035 34.298 34.298 0 0 0-4.18 1.11c-20.098 6.316-32.578 26.359-29.383 47.18 3.2 20.823 21.113 36.195 42.184 36.19a41.816 41.816 0 0 0 21.93-6.14 74.005 74.005 0 0 1 20.394-8.875c7.32 3.863 10.808 12.426 8.277 20.309zm0 0" fill="#795548"/><path d="M146.758 349.89c0 11.782-9.551 21.333-21.332 21.333s-21.332-9.551-21.332-21.332 9.55-21.336 21.332-21.336 21.332 9.554 21.332 21.336zm0 0" fill="#ffea3a"/><path d="M180.895 422.422c0 11.781-9.555 21.336-21.336 21.336s-21.332-9.555-21.332-21.336 9.55-21.332 21.332-21.332 21.336 9.55 21.336 21.332zm0 0" fill="#4cae50"/><path d="M257.691 448.023c0 11.782-9.55 21.332-21.332 21.332s-21.332-9.55-21.332-21.332 9.551-21.332 21.332-21.332 21.332 9.551 21.332 21.332zm0 0" fill="#fff"/><path d="M180.895 277.355c0 11.782-9.555 21.336-21.336 21.336s-21.332-9.554-21.332-21.336 9.55-21.332 21.332-21.332 21.336 9.551 21.336 21.332zm0 0" fill="#f34335"/><path d="M257.691 251.758c0 11.781-9.55 21.332-21.332 21.332s-21.332-9.55-21.332-21.332c0-11.785 9.551-21.336 21.332-21.336s21.332 9.55 21.332 21.336zm0 0" fill="#0377bb"/><path d="M503.477 82.54V281.62H435.21V82.54a103.938 103.938 0 0 1 13.824-51.2l7.508-13.398 2.305-4.093a13.017 13.017 0 0 1 20.992 0l9.812 17.492a103.896 103.896 0 0 1 13.825 51.2zm0 0" fill="#4e342e"/><path d="M477.879 82.54V281.62H435.21V82.54a103.938 103.938 0 0 1 13.824-51.2l7.508-13.398 7.512 13.399a103.938 103.938 0 0 1 13.824 51.2zm0 0" fill="#795548"/><path d="M502.285 503.488a157.363 157.363 0 0 1-35.16-18.176c-14.422-10.152-28.5-24.574-31.23-43.261-4.778-33.281 17.066-39.512 25.343-40.707a27.568 27.568 0 0 1 3.157-.254h22.187c25.77 23.297 17.152 37.203 6.23 51.2-13.652 17.41 9.473 51.198 9.473 51.198zm0 0" fill="#424242"/><path d="M467.21 452.29c-6.995 8.96-4.35 22.272-.085 33.022-14.422-10.152-28.5-24.574-31.23-43.261-4.778-33.281 17.066-39.512 25.343-40.707 25.43 23.129 16.895 37.035 5.973 50.945zm0 0" fill="#9d9d9d"/><path d="M469.344 128.023a8.532 8.532 0 0 0-8.531 8.532v93.867a8.533 8.533 0 1 0 17.066 0v-93.867c0-4.711-3.82-8.532-8.535-8.532zm0 0M469.344 85.355a8.533 8.533 0 0 0-8.531 8.536v8.53a8.533 8.533 0 1 0 17.066 0v-8.53a8.534 8.534 0 0 0-8.535-8.536zm0 0" fill="#805333"/><path d="M59.746 42.664c0 4.711-3.82 8.531-8.535 8.531a8.532 8.532 0 0 1-8.531-8.53 8.533 8.533 0 1 1 17.066 0zm0 0M93.879 42.664c0 4.711-3.82 8.531-8.535 8.531a8.532 8.532 0 0 1-8.531-8.53 8.533 8.533 0 1 1 17.066 0zm0 0M128.012 42.664c0 4.711-3.82 8.531-8.535 8.531a8.532 8.532 0 0 1-8.532-8.53 8.533 8.533 0 1 1 17.067 0zm0 0M366.945 42.664c0 4.711-3.82 8.531-8.535 8.531a8.532 8.532 0 0 1-8.531-8.53 8.533 8.533 0 1 1 17.066 0zm0 0M205.441 511.262c5.243.508 10.434.761 15.582.761 69.915.13 131.875-45 153.2-111.582a25.326 25.326 0 0 0-3.653-22.937 25.586 25.586 0 0 0-20.691-10.547h-2.383a75.952 75.952 0 0 0-40.105 12.16c-14.332 8.7-32.88 5.54-43.52-7.418a34.179 34.179 0 0 1-5.976-32.984 34.185 34.185 0 0 1 25.082-22.242 33.335 33.335 0 0 1 24.097 3.992 77.685 77.685 0 0 0 40.465 12.36h2.34a25.6 25.6 0 0 0 24.32-33.555c-17.683-54.872-63.379-96.086-119.777-108.032-56.399-11.949-114.879 7.2-153.29 50.192a163.501 163.501 0 0 0-40.37 126.918c8.472 75.804 68.777 135.375 144.68 142.914zm-91.578-258.465c34.336-38.438 86.625-55.559 137.047-44.871s91.266 47.547 107.059 96.61a8.536 8.536 0 0 1-1.176 7.679 8.554 8.554 0 0 1-6.914 3.543h-2.348a60.563 60.563 0 0 1-31.785-10.004 50.874 50.874 0 0 0-75.836 34.008 51.63 51.63 0 0 0 10.77 42.777c16.054 19.5 44.008 24.227 65.586 11.094a58.56 58.56 0 0 1 31.25-9.61h2.363a8.534 8.534 0 0 1 8.09 11.16c-18.59 55.704-69.067 94.594-127.668 98.36-58.598 3.77-113.64-28.336-139.211-81.2-25.567-52.863-16.563-115.945 22.773-159.546zm0 0"/><path d="M125.453 379.758c16.492 0 29.863-13.375 29.863-29.867 0-16.496-13.37-29.868-29.863-29.868-16.496 0-29.867 13.372-29.867 29.868 0 16.492 13.371 29.867 29.867 29.867zm0-42.668c7.067 0 12.797 5.73 12.797 12.8 0 7.067-5.73 12.801-12.797 12.801-7.07 0-12.8-5.734-12.8-12.8 0-7.07 5.73-12.801 12.8-12.801zm0 0M138.438 401.277c-11.66 11.664-11.66 30.575.003 42.239 11.664 11.66 30.575 11.66 42.239 0 11.66-11.664 11.664-30.575 0-42.239-11.68-11.632-30.563-11.632-42.243 0zm30.175 30.184c-5 4.996-13.101 4.992-18.101-.004-4.996-5-4.996-13.102 0-18.102 5-5 13.101-5 18.101-.003a12.805 12.805 0 0 1 0 18.11zm0 0M236.387 477.89c16.492 0 29.863-13.37 29.863-29.867 0-16.496-13.371-29.867-29.863-29.867-16.496 0-29.867 13.371-29.867 29.867 0 16.497 13.37 29.868 29.867 29.868zm0-42.667c7.066 0 12.797 5.73 12.797 12.8s-5.73 12.801-12.797 12.801c-7.07 0-12.801-5.73-12.801-12.8a12.799 12.799 0 0 1 12.8-12.8zm0 0M159.586 307.18c14.25-.008 26.508-10.086 29.277-24.063 2.77-13.98-4.722-27.969-17.894-33.406-13.172-5.441-28.352-.82-36.254 11.035-7.906 11.86-6.332 27.649 3.758 37.715a29.893 29.893 0 0 0 21.113 8.719zm-9.047-38.895c5-4.996 13.102-4.996 18.102.004 4.996 5 4.996 13.102 0 18.102-5 4.996-13.102 5-18.102.004a12.816 12.816 0 0 1-3.77-9.047 12.825 12.825 0 0 1 3.735-9.063zm0 0M236.387 281.621c16.492 0 29.863-13.371 29.863-29.863 0-16.496-13.371-29.867-29.863-29.867-16.496 0-29.867 13.37-29.867 29.867 0 16.492 13.37 29.863 29.867 29.863zm0-42.664c7.066 0 12.797 5.73 12.797 12.8 0 7.067-5.73 12.798-12.797 12.798-7.07 0-12.801-5.73-12.801-12.797a12.799 12.799 0 0 1 12.8-12.8zm0 0"/><path d="M32.02 357.059a8.535 8.535 0 0 0 8.226-2.29 8.534 8.534 0 0 0-3.96-14.25c-11.298-2.914-19.196-13.097-19.208-24.761V85.355h375.465v230.403c0 14.137-11.461 25.597-25.598 25.597a8.534 8.534 0 1 0 0 17.067c23.551-.027 42.637-19.113 42.668-42.664V42.69C409.582 19.137 390.496.051 366.945.023H42.68C19.125.051.04 19.137.012 42.691v273.067c.004 19.453 13.172 36.441 32.008 41.3zm10.66-339.97h324.265c14.137 0 25.598 11.462 25.598 25.602V68.29H17.078V42.691c0-14.14 11.461-25.601 25.602-25.601zm0 0M494.945 397.25v-54.715l16.743-58.601c.062-.395.093-.793.093-1.192a8.39 8.39 0 0 0 .23-1.12V82.558a111.793 111.793 0 0 0-14.898-55.399l-9.847-17.555a21.477 21.477 0 0 0-35.797 0l-9.89 17.555a111.752 111.752 0 0 0-14.9 55.399V281.62c.051.387.126.77.231 1.145 0 .402.031.8.094 1.195l16.742 58.574v56.32a34.187 34.187 0 0 0-7.867 6.622 45.453 45.453 0 0 0-8.426 37.8c6.606 45.621 69.438 67.414 72.11 68.27a8.535 8.535 0 0 0 9.539-2.93 8.535 8.535 0 0 0 .23-9.984c-6.398-9.324-17.23-31.64-9.805-41.106 12.11-15.425 22.485-34.054-4.582-60.277zm-48.418-107.094h45.637l-12.187 42.668H458.71zm-2.78-207.597a95.094 95.094 0 0 1 12.694-47.036l9.883-17.582a5.465 5.465 0 0 1 6.043 0l9.88 17.582a95.098 95.098 0 0 1 12.698 47.036v190.53h-51.199zm17.065 309.996V349.89h17.067v42.664zm25.286 54.468c-8.844 11.274-6.828 26.25-2.383 38.622-16.274-8.993-36.38-24.098-39.383-44.817a29.862 29.862 0 0 1 4.356-24.078 23.325 23.325 0 0 1 15.726-7.129h18.774c18.3 17.625 11.835 25.996 2.91 37.379zm0 0"/><path d="M469.344 128.023a8.532 8.532 0 0 0-8.531 8.532v93.867a8.533 8.533 0 1 0 17.066 0v-93.867c0-4.711-3.82-8.532-8.535-8.532zm0 0M469.344 85.355a8.533 8.533 0 0 0-8.531 8.536v8.53a8.533 8.533 0 1 0 17.066 0v-8.53a8.534 8.534 0 0 0-8.535-8.536zm0 0M349.879 204.824a8.533 8.533 0 1 0 0 17.067h8.531c9.426 0 17.067-7.641 17.067-17.067v-85.336c0-9.425-7.641-17.066-17.067-17.066H51.21c-9.425 0-17.065 7.64-17.065 17.066v85.336c0 9.426 7.64 17.067 17.066 17.067h42.668c4.71 0 8.531-3.82 8.531-8.536 0-4.71-3.82-8.53-8.531-8.53H51.21v-85.337h307.2v85.336zm0 0"/></svg><svg viewBox="0 0 512 512" id="web2" xmlns="http://www.w3.org/2000/svg"><path d="M486.398 42.668v273.066H25.602V42.668c0-18.852 15.28-34.133 34.132-34.133h392.532a33.767 33.767 0 0 1 15.789 3.922 34.095 34.095 0 0 1 12.543 11.094 34.813 34.813 0 0 1 5.8 19.117zm0 0" fill="#9d9d9d"/><path d="M452.266 42.668v273.066H25.602V42.668c0-18.852 15.28-34.133 34.132-34.133h358.399a33.767 33.767 0 0 1 15.789 3.922 34.125 34.125 0 0 1 12.543 11.094 34.813 34.813 0 0 1 5.8 19.117zm0 0" fill="#ced7db"/><path d="M358.398 179.2h119.47c14.136 0 25.597 11.46 25.597 25.6v273.067c0 14.137-11.461 25.598-25.598 25.598H358.398c-14.136 0-25.597-11.461-25.597-25.598V204.801c0-14.14 11.46-25.602 25.597-25.602zm0 0" fill="#bdc3c7"/><path d="M349.867 179.2h119.465c14.14 0 25.602 11.46 25.602 25.6v273.067c0 14.137-11.461 25.598-25.602 25.598H349.867c-14.14 0-25.601-11.461-25.601-25.598V204.801c0-14.14 11.46-25.602 25.601-25.602zm0 0" fill="#37474f"/><path d="M349.867 179.2h93.867c14.137 0 25.598 11.46 25.598 25.6v273.067c0 14.137-11.46 25.598-25.598 25.598h-93.867c-14.14 0-25.601-11.461-25.601-25.598V204.801c0-14.14 11.46-25.602 25.601-25.602zm0 0" fill="#607d8a"/><path d="M230.398 307.2h119.47V384h-119.47zm0 0" fill="#37474f"/><path d="M443.734 119.465c0 28.277-22.925 51.203-51.199 51.203a52.763 52.763 0 0 1-12.8-1.621c-22.606-5.817-38.407-26.195-38.407-49.54 0-23.339 15.8-43.718 38.406-49.534a48.85 48.85 0 0 1 12.801-1.707c28.274 0 51.2 22.925 51.2 51.199zm0 0M307.2 119.465c0 28.277-22.923 51.203-51.2 51.203a52.787 52.787 0 0 1-12.8-1.621c-22.606-5.817-38.407-26.195-38.407-49.54 0-23.339 15.8-43.718 38.406-49.534A48.85 48.85 0 0 1 256 68.266c28.277 0 51.2 22.925 51.2 51.199zm0 0M170.668 119.465c0 28.277-22.926 51.203-51.203 51.203a52.756 52.756 0 0 1-12.797-1.621c-22.606-5.817-38.406-26.195-38.406-49.54 0-23.339 15.8-43.718 38.406-49.534a48.843 48.843 0 0 1 12.797-1.707c28.277 0 51.203 22.925 51.203 51.199zm0 0" fill="#fdc008"/><path d="M230.398 418.133h119.47v34.133h-119.47zm0 0" fill="#37474f"/><path d="M230.398 307.2H307.2V384h-76.8zm0 0M230.398 418.133H307.2v34.133h-76.8zm0 0" fill="#607d8a"/><path d="M303.36 274.516a4.87 4.87 0 0 0-1.45-.766 5.109 5.109 0 0 0-1.629-.512 7.224 7.224 0 0 0-3.32 0 5.424 5.424 0 0 0-1.535.512 6.715 6.715 0 0 0-1.547.766l-1.27 1.027a8.937 8.937 0 0 0-2.476 6.059 7.153 7.153 0 0 0 .683 3.242 8.188 8.188 0 0 0 7.852 5.289 8.984 8.984 0 0 0 6.059-2.473 8.815 8.815 0 0 0 1.789-2.816 8.507 8.507 0 0 0 .683-3.242 8.951 8.951 0 0 0-2.472-6.059c-.43-.344-.864-.684-1.368-1.027zm0 0M247.465 221.867h17.07c4.711 0 8.531-3.82 8.531-8.535 0-4.71-3.82-8.531-8.53-8.531h-17.071a8.532 8.532 0 0 0-8.531 8.531 8.533 8.533 0 0 0 8.53 8.535zm0 0M298.668 221.867h34.133c4.71 0 8.531-3.82 8.531-8.535 0-4.71-3.82-8.531-8.531-8.531h-34.133a8.533 8.533 0 1 0 0 17.066zm0 0M273.066 238.934h-25.601a8.532 8.532 0 0 0-8.531 8.53 8.533 8.533 0 0 0 8.53 8.536h25.602a8.534 8.534 0 1 0 0-17.066zm0 0M332.8 238.934h-25.6a8.532 8.532 0 0 0-8.532 8.53 8.533 8.533 0 0 0 8.531 8.536h25.602c4.71 0 8.531-3.82 8.531-8.535 0-4.711-3.82-8.531-8.531-8.531zm0 0M264.535 273.066h-17.07a8.533 8.533 0 0 0-8.531 8.536c0 4.71 3.82 8.53 8.53 8.53h17.071a8.533 8.533 0 0 0 0-17.066zm0 0" fill="#e6e7e8"/><path d="M332.8 230.398v221.868h170.665V230.398zm0 0" fill="#ced7db"/><path d="M366.934 392.535h59.734c4.71 0 8.531-3.824 8.531-8.535s-3.82-8.535-8.531-8.535h-59.734a8.536 8.536 0 0 0 0 17.07zm0 0M460.8 392.535h8.532a8.536 8.536 0 0 0 0-17.07h-8.531a8.536 8.536 0 0 0 0 17.07zm0 0M375.465 409.602h-8.531a8.533 8.533 0 1 0 0 17.066h8.53a8.534 8.534 0 1 0 0-17.066zm0 0M469.332 426.668a8.534 8.534 0 1 0 0-17.066h-59.73a8.533 8.533 0 1 0 0 17.066" fill="#e6e7e8"/><path d="M460.8 307.2a42.518 42.518 0 0 1-12.46 30.206 42.518 42.518 0 0 1-30.207 12.461 45.544 45.544 0 0 1-12.801-1.879 42.81 42.81 0 0 1-17.406-70.996 43.956 43.956 0 0 1 17.406-10.582 45.54 45.54 0 0 1 12.8-1.875 42.53 42.53 0 0 1 30.208 12.457A42.525 42.525 0 0 1 460.8 307.2zm0 0" fill="#fdc008"/><path d="M426.668 486.398v17.067h-17.066v-17.067c0-4.71 3.82-8.53 8.53-8.53a8.533 8.533 0 0 1 8.536 8.53zm0 0" fill="#7f8c8d"/><path d="M418.133 119.465c-.055 23.332-15.824 43.691-38.399 49.582-22.605-5.817-38.406-26.195-38.406-49.54 0-23.339 15.8-43.718 38.406-49.534 22.575 5.828 38.364 26.175 38.399 49.492zm0 0M281.602 119.465c-.055 23.332-15.829 43.691-38.403 49.582-22.605-5.817-38.406-26.195-38.406-49.54 0-23.339 15.8-43.718 38.406-49.534 22.578 5.828 38.363 26.175 38.403 49.492zm0 0M145.066 119.465c-.054 23.332-15.824 43.691-38.398 49.582-22.606-5.817-38.406-26.195-38.406-49.54 0-23.339 15.8-43.718 38.406-49.534 22.574 5.828 38.363 26.175 38.398 49.492zm0 0M435.2 307.2c0 11.32-4.477 22.179-12.458 30.206a43.925 43.925 0 0 1-17.41 10.582 42.81 42.81 0 0 1-17.406-70.996 43.956 43.956 0 0 1 17.406-10.582 43.97 43.97 0 0 1 17.41 10.582A42.841 42.841 0 0 1 435.2 307.2zm0 0" fill="#ffea3a"/><path d="M221.867 384h76.801v25.602h-76.8zm0 0" fill="#37474f"/><path d="M34.133 145.066h187.734c14.137 0 25.598 11.461 25.598 25.602v307.2c0 14.136-11.461 25.597-25.598 25.597H34.133c-14.137 0-25.598-11.461-25.598-25.598V170.668c0-14.14 11.461-25.602 25.598-25.602zm0 0" fill="#bdc3c7"/><path d="M25.602 145.066h187.73c14.14 0 25.602 11.461 25.602 25.602v307.2c0 14.136-11.461 25.597-25.602 25.597H25.602C11.46 503.465 0 492.004 0 477.867V170.668c0-14.14 11.46-25.602 25.602-25.602zm0 0" fill="#37474f"/><path d="M25.602 145.066h162.132c14.137 0 25.598 11.461 25.598 25.602v307.2c0 14.136-11.46 25.597-25.598 25.597H25.602C11.46 503.465 0 492.004 0 477.867V170.668c0-14.14 11.46-25.602 25.602-25.602zm0 0" fill="#607d8a"/><path d="M247.125 196.266H8.535v256h238.93v-256zm0 0" fill="#ced7db"/><path d="M119.465 503.465v-17.067c0-4.71 3.824-8.53 8.535-8.53s8.535 3.82 8.535 8.53v17.067zm0 0" fill="#7f8c8d"/><g fill="#e6e7e8"><path d="M102.398 358.398h-59.73a8.533 8.533 0 1 1 0-17.066h59.73a8.534 8.534 0 1 1 0 17.066zm0 0M213.332 358.398h-8.531a8.533 8.533 0 1 1 0-17.066h8.531a8.534 8.534 0 1 1 0 17.066zm0 0M170.668 358.398h-34.133a8.533 8.533 0 1 1 0-17.066h34.133c4.71 0 8.531 3.82 8.531 8.535 0 4.711-3.82 8.531-8.531 8.531zm0 0M51.2 392.535h-8.532a8.536 8.536 0 0 1 0-17.07h8.531a8.536 8.536 0 0 1 0 17.07zm0 0M85.332 392.535c-4.71 0-8.531-3.824-8.531-8.535s3.82-8.535 8.531-8.535h128a8.536 8.536 0 0 1 0 17.07M153.602 426.668h-8.536a8.533 8.533 0 0 1-8.53-8.535c0-4.711 3.82-8.531 8.53-8.531h8.536c4.71 0 8.53 3.82 8.53 8.53a8.533 8.533 0 0 1-8.53 8.536zm0 0M110.934 426.668H42.668a8.534 8.534 0 1 1 0-17.066h68.266c4.71 0 8.53 3.82 8.53 8.53a8.533 8.533 0 0 1-8.53 8.536zm0 0"/></g><path d="M110.934 281.602c0 18.851-15.282 34.132-34.133 34.132A32.094 32.094 0 0 1 64 313.172a34.025 34.025 0 0 1-21.332-31.57A34.026 34.026 0 0 1 64 250.027a32.094 32.094 0 0 1 12.8-2.562 34.138 34.138 0 0 1 34.134 34.137zm0 0M213.332 281.602c0 18.851-15.281 34.132-34.133 34.132a32.107 32.107 0 0 1-12.8-2.562 34.03 34.03 0 0 1 0-63.145 32.107 32.107 0 0 1 12.8-2.562 34.132 34.132 0 0 1 34.133 34.137zm0 0" fill="#fdc008"/><path d="M85.332 281.602c0-17.438-9.55-31.575-21.332-31.575s-21.332 14.137-21.332 31.575 9.55 31.57 21.332 31.57 21.332-14.133 21.332-31.57zm0 0M187.734 281.602c0-17.438-9.55-31.575-21.336-31.575-11.78 0-21.332 14.137-21.332 31.575s9.551 31.57 21.332 31.57c11.786 0 21.336-14.133 21.336-31.57zm0 0" fill="#ffea3a"/><path d="M290.816 284.816a8.19 8.19 0 0 0 7.852 5.317 8.984 8.984 0 0 0 6.059-2.473 8.815 8.815 0 0 0 1.789-2.816 8.507 8.507 0 0 0 .683-3.242 8.932 8.932 0 0 0-2.472-6.051c-.43-.352-.856-.692-1.368-1.035a4.87 4.87 0 0 0-1.449-.766 4.999 4.999 0 0 0-1.629-.504 7.017 7.017 0 0 0-3.32 0 5.064 5.064 0 0 0-1.535.504 6.715 6.715 0 0 0-1.547.766l-1.27 1.035a8.9 8.9 0 0 0-2.476 6.05 7.142 7.142 0 0 0 .683 3.215zm0 0M366.934 392.535h59.734c4.71 0 8.531-3.824 8.531-8.535s-3.82-8.535-8.531-8.535h-59.734a8.536 8.536 0 0 0 0 17.07zm0 0M460.8 375.465a8.536 8.536 0 0 0 0 17.07h8.532a8.536 8.536 0 0 0 0-17.07zm0 0M375.465 409.602h-8.531a8.533 8.533 0 1 0 0 17.066h8.53a8.534 8.534 0 1 0 0-17.066zm0 0M469.332 409.602h-59.73a8.533 8.533 0 1 0 0 17.066h59.73a8.534 8.534 0 1 0 0-17.066zm0 0"/><path d="M494.934 175.395V42.668C494.906 19.113 475.82.028 452.266 0H59.734C36.18.027 17.094 19.113 17.066 42.668v98.594A34.012 34.012 0 0 0 0 170.668v307.2C0 496.717 15.281 512 34.133 512h187.734C240.72 512 256 496.719 256 477.867v-17.066h68.266v17.066c0 18.852 15.28 34.133 34.132 34.133h119.47c18.85 0 34.132-15.281 34.132-34.133V204.801a34.016 34.016 0 0 0-17.066-29.406zM17.066 204.8h221.868v238.933H17.066zM256 392.535h34.133v17.067H256zm51.2 0h17.066v17.067h-17.067zm17.066-17.07H256v-51.2h68.266zM256 426.668h68.266v17.066H256zm85.332-187.734h153.602v204.8H341.332zm0-17.067v-17.066c0-9.426 7.64-17.067 17.066-17.067h119.47c9.425 0 17.066 7.641 17.066 17.067v17.066zM34.132 42.668c0-14.14 11.462-25.602 25.602-25.602h392.532c14.14 0 25.601 11.461 25.601 25.602v128H358.398c-18.851 0-34.132 15.281-34.132 34.133h-25.598a8.533 8.533 0 1 0 0 17.066h25.598v17.067h-17.067a8.532 8.532 0 0 0-8.531 8.53 8.533 8.533 0 0 0 8.531 8.536h17.067v51.2H256v-17.067h8.535c4.711 0 8.531-3.82 8.531-8.531a8.533 8.533 0 0 0-8.53-8.536H256V256h17.066a8.534 8.534 0 1 0 0-17.066H256v-17.067h8.535c4.711 0 8.531-3.82 8.531-8.535 0-4.71-3.82-8.531-8.53-8.531H256v-34.133c0-18.852-15.281-34.133-34.133-34.133H34.133zm0 110.934h187.735c9.426 0 17.067 7.64 17.067 17.066v17.066H17.066v-17.066c0-9.426 7.641-17.066 17.067-17.066zm187.735 341.332h-85.332v-8.536c0-4.71-3.824-8.53-8.535-8.53s-8.535 3.82-8.535 8.53v8.536H34.133c-9.426 0-17.067-7.641-17.067-17.067v-17.066h221.868v17.066c0 9.426-7.641 17.067-17.067 17.067zm256 0h-51.199v-8.536c0-4.71-3.82-8.53-8.535-8.53a8.532 8.532 0 0 0-8.531 8.53v8.536h-51.204c-9.425 0-17.066-7.641-17.066-17.067v-17.066h153.602v17.066c0 9.426-7.641 17.067-17.067 17.067zm0 0"/><path d="M119.465 59.734c-29.172-.074-54.098 21.004-58.88 49.782a8.535 8.535 0 0 0 7.02 9.699c4.598.773 8.965-2.281 9.81-6.863 3.448-20.551 21.237-35.606 42.077-35.606s38.63 15.055 42.078 35.606a8.533 8.533 0 0 0 16.828-2.836c-4.78-28.797-29.738-49.88-58.933-49.782zm0 0M256 76.8c19.309 0 36.215 12.97 41.21 31.622 4.997 18.652-3.155 38.34-19.878 47.992a8.527 8.527 0 0 0-4.574 7.45 8.536 8.536 0 0 0 4.37 7.566 8.541 8.541 0 0 0 8.74-.25c24.034-13.864 35.359-42.446 27.343-69.008-8.02-26.559-33.27-44.106-60.957-42.352-27.691 1.75-50.527 22.336-55.133 49.696a8.53 8.53 0 0 0 7.02 9.699 8.535 8.535 0 0 0 9.808-6.863C217.371 91.8 235.168 76.754 256 76.8zm0 0M418.133 358.398c28.277 0 51.199-22.921 51.199-51.199 0-28.277-22.922-51.199-51.2-51.199-28.277 0-51.198 22.922-51.198 51.2.03 28.265 22.937 51.167 51.199 51.198zm0-85.332c18.851 0 34.133 15.282 34.133 34.133 0 18.852-15.282 34.133-34.133 34.133-18.852 0-34.133-15.281-34.133-34.133 0-18.851 15.281-34.133 34.133-34.133zm0 0M352.527 152.414a8.535 8.535 0 0 0 3.953-5.203 8.535 8.535 0 0 0-.886-6.469 42.237 42.237 0 0 1-5.727-21.277c0-23.563 19.102-42.664 42.668-42.664 23.563 0 42.664 19.101 42.664 42.664a42.244 42.244 0 0 1-5.726 21.293 8.533 8.533 0 1 0 14.738 8.574c14.55-25.102 8.96-57.027-13.254-75.691-22.215-18.664-54.629-18.664-76.848 0-22.214 18.664-27.804 50.59-13.254 75.691a8.54 8.54 0 0 0 5.2 3.961 8.524 8.524 0 0 0 6.472-.879zm0 0M42.668 358.398h59.73a8.533 8.533 0 1 0 0-17.066h-59.73a8.534 8.534 0 1 0 0 17.066zm0 0M213.332 341.332h-8.531a8.534 8.534 0 1 0 0 17.066h8.531a8.533 8.533 0 1 0 0-17.066zm0 0M136.535 358.398h34.133a8.533 8.533 0 0 0 0-17.066h-34.133a8.534 8.534 0 1 0 0 17.066zm0 0M42.668 392.535h8.531a8.536 8.536 0 0 0 0-17.07h-8.531a8.536 8.536 0 0 0 0 17.07zm0 0M213.332 375.465h-128c-4.71 0-8.531 3.824-8.531 8.535s3.82 8.535 8.531 8.535h128a8.536 8.536 0 0 0 0-17.07zm0 0M153.602 409.602h-8.536a8.532 8.532 0 0 0-8.53 8.53 8.533 8.533 0 0 0 8.53 8.536h8.536c4.71 0 8.53-3.82 8.53-8.535 0-4.711-3.82-8.531-8.53-8.531zm0 0M110.934 409.602H42.668a8.533 8.533 0 1 0 0 17.066h68.266c4.71 0 8.53-3.82 8.53-8.535 0-4.711-3.82-8.531-8.53-8.531zm0 0M76.8 324.266c23.563 0 42.665-19.102 42.665-42.664 0-23.567-19.102-42.668-42.664-42.668-23.567 0-42.668 19.101-42.668 42.668.027 23.55 19.113 42.636 42.668 42.664zm0-68.266c14.138 0 25.598 11.46 25.598 25.602 0 14.136-11.46 25.597-25.597 25.597-14.14 0-25.602-11.46-25.602-25.597C51.2 267.46 62.66 256 76.801 256zm0 0M179.2 324.266c23.566 0 42.667-19.102 42.667-42.664 0-23.567-19.101-42.668-42.668-42.668-23.562 0-42.664 19.101-42.664 42.668.028 23.55 19.113 42.636 42.664 42.664zm0-68.266c14.14 0 25.6 11.46 25.6 25.602 0 14.136-11.46 25.597-25.6 25.597-14.137 0-25.598-11.46-25.598-25.597 0-14.141 11.46-25.602 25.597-25.602zm0 0"/></svg><svg viewBox="0 -13 512 512" id="web3" xmlns="http://www.w3.org/2000/svg"><path d="M503.465 93.867v324.266c0 18.851-15.281 34.133-34.133 34.133H42.668c-18.852 0-34.133-15.282-34.133-34.133V93.867zm0 0" fill="#9d9d9d"/><path d="M477.867 93.867v324.266c0 18.851-15.281 34.133-34.133 34.133H42.668c-18.852 0-34.133-15.282-34.133-34.133V93.867zm0 0" fill="#ced7db"/><path d="M503.465 42.668v68.266H8.535V42.668c0-18.852 15.281-34.133 34.133-34.133h426.664c18.852 0 34.133 15.281 34.133 34.133zm0 0" fill="#00828e"/><path d="M477.867 42.668v68.266H8.535V42.668c0-18.852 15.281-34.133 34.133-34.133h401.066c18.852 0 34.133 15.281 34.133 34.133zm0 0" fill="#00bbd3"/><path d="M76.8 59.734c0 9.426-7.64 17.067-17.066 17.067s-17.066-7.64-17.066-17.067 7.64-17.066 17.066-17.066 17.067 7.64 17.067 17.066zm0 0" fill="#f34335"/><path d="M145.066 59.734c0 9.426-7.64 17.067-17.066 17.067s-17.066-7.64-17.066-17.067 7.64-17.066 17.066-17.066 17.066 7.64 17.066 17.066zm0 0" fill="#ffea3a"/><path d="M213.332 59.734c0 9.426-7.64 17.067-17.066 17.067s-17.067-7.64-17.067-17.067 7.64-17.066 17.067-17.066 17.066 7.64 17.066 17.066zm0 0" fill="#4cae50"/><path d="M366.934 68.266h-85.332a8.533 8.533 0 1 1 0-17.067h85.332c4.71 0 8.53 3.82 8.53 8.535 0 4.711-3.82 8.532-8.53 8.532zm0 0" fill="#955ba5"/><path d="M82.832 139.035a8.532 8.532 0 0 0-12.066 0l-25.598 25.598a8.532 8.532 0 0 0 0 12.066l25.598 25.602a8.534 8.534 0 0 0 12.066-12.066l-19.566-19.567 19.566-19.566a8.532 8.532 0 0 0 0-12.067zm0 0M185.234 164.633l-25.601-25.598a8.534 8.534 0 0 0-12.067 12.067l19.567 19.566-19.567 19.566a8.528 8.528 0 0 0 3.77 14.39 8.528 8.528 0 0 0 8.297-2.323l25.601-25.602a8.54 8.54 0 0 0 0-12.066zm0 0M131.813 137.43a8.523 8.523 0 0 0-6.516-.461 8.524 8.524 0 0 0-4.934 4.285l-25.601 51.2a8.534 8.534 0 0 0 3.824 11.448 8.535 8.535 0 0 0 11.453-3.82l25.598-51.2a8.534 8.534 0 0 0-3.825-11.452zm0 0" fill="#2fa8cc"/><g fill="#3f5c6c"><path d="M256 153.602h-42.668a8.532 8.532 0 0 0-8.531 8.53 8.533 8.533 0 0 0 8.531 8.536H256c4.71 0 8.535-3.82 8.535-8.535 0-4.711-3.824-8.531-8.535-8.531zm0 0M298.668 153.602h-8.535a8.532 8.532 0 0 0-8.531 8.53 8.533 8.533 0 0 0 8.53 8.536h8.536c4.71 0 8.531-3.82 8.531-8.535 0-4.711-3.82-8.531-8.531-8.531zm0 0M213.332 213.332h17.066a8.533 8.533 0 1 0 0-17.066h-17.066a8.533 8.533 0 0 0-8.531 8.535c0 4.71 3.82 8.531 8.531 8.531zm0 0M51.2 256h25.6c4.712 0 8.532-3.82 8.532-8.535 0-4.711-3.82-8.531-8.531-8.531H51.199a8.532 8.532 0 0 0-8.531 8.53A8.533 8.533 0 0 0 51.199 256zm0 0M110.934 256h68.265a8.534 8.534 0 1 0 0-17.066h-68.265a8.533 8.533 0 1 0 0 17.066zm0 0M247.465 238.934h-34.133a8.532 8.532 0 0 0-8.531 8.53 8.533 8.533 0 0 0 8.531 8.536h34.133a8.534 8.534 0 1 0 0-17.066zm0 0M76.8 324.266H51.2a8.533 8.533 0 0 0-8.532 8.535c0 4.71 3.82 8.531 8.531 8.531h25.602c4.71 0 8.531-3.82 8.531-8.531a8.533 8.533 0 0 0-8.531-8.535zm0 0M179.2 324.266h-68.266a8.534 8.534 0 1 0 0 17.066h68.265a8.533 8.533 0 1 0 0-17.066zm0 0M247.465 324.266h-34.133a8.533 8.533 0 0 0-8.531 8.535c0 4.71 3.82 8.531 8.531 8.531h34.133a8.533 8.533 0 1 0 0-17.066zm0 0M247.465 281.602h-68.266a8.532 8.532 0 0 0-8.531 8.53 8.533 8.533 0 0 0 8.531 8.536h68.266a8.534 8.534 0 1 0 0-17.066zm0 0M51.2 298.668h93.866a8.534 8.534 0 1 0 0-17.066H51.2a8.532 8.532 0 0 0-8.531 8.53 8.533 8.533 0 0 0 8.531 8.536zm0 0"/></g><path d="M298.668 256h187.73v68.266h-187.73zm0 0M298.668 366.934h187.73v51.199h-187.73zm0 0" fill="#37474f"/><path d="M298.668 256h162.133v68.266H298.668zm0 0M298.668 366.934h162.133v51.199H298.668zm0 0" fill="#607d8a"/><path d="M298.668 204.8h187.73c9.426 0 17.067 7.641 17.067 17.067V256c0 9.426-7.64 17.066-17.067 17.066h-187.73c-9.426 0-17.066-7.64-17.066-17.066v-34.133c0-9.426 7.64-17.066 17.066-17.066zm0 0M298.668 307.2h187.73c9.426 0 17.067 7.64 17.067 17.066v34.132c0 9.426-7.64 17.067-17.067 17.067h-187.73c-9.426 0-17.066-7.64-17.066-17.067v-34.132c0-9.426 7.64-17.067 17.066-17.067zm0 0M298.668 409.602h187.73c9.426 0 17.067 7.64 17.067 17.066v34.133c0 9.426-7.64 17.066-17.067 17.066h-187.73c-9.426 0-17.066-7.64-17.066-17.066v-34.133c0-9.426 7.64-17.066 17.066-17.066zm0 0" fill="#00828e"/><path d="M298.668 204.8h162.133c9.426 0 17.066 7.641 17.066 17.067V256c0 9.426-7.64 17.066-17.066 17.066H298.668c-9.426 0-17.066-7.64-17.066-17.066v-34.133c0-9.426 7.64-17.066 17.066-17.066zm0 0M298.668 307.2h162.133c9.426 0 17.066 7.64 17.066 17.066v34.132c0 9.426-7.64 17.067-17.066 17.067H298.668c-9.426 0-17.066-7.64-17.066-17.067v-34.132c0-9.426 7.64-17.067 17.066-17.067zm0 0M298.668 409.602h162.133c9.426 0 17.066 7.64 17.066 17.066v34.133c0 9.426-7.64 17.066-17.066 17.066H298.668c-9.426 0-17.066-7.64-17.066-17.066v-34.133c0-9.426 7.64-17.066 17.066-17.066zm0 0" fill="#00bbd3"/><path d="M324.266 247.465h-8.532a8.533 8.533 0 1 1 0-17.067h8.532a8.534 8.534 0 1 1 0 17.067zm0 0" fill="#f0c419"/><path d="M358.398 247.465a8.445 8.445 0 0 1-8.21-6.86 8.444 8.444 0 0 1 5.101-9.406 8.447 8.447 0 1 1 9.168 13.793 8.951 8.951 0 0 1-6.059 2.473zm0 0" fill="#14a085"/><path d="M469.332 247.465h-76.797a8.533 8.533 0 1 1 0-17.067h76.797a8.534 8.534 0 1 1 0 17.067zm0 0" fill="#bdc3c7"/><path d="M324.266 349.867h-8.532a8.534 8.534 0 1 1 0-17.066h8.532a8.533 8.533 0 1 1 0 17.066zm0 0" fill="#f0c419"/><path d="M358.398 349.867a8.536 8.536 0 0 1-6.059-14.594 9.909 9.909 0 0 1 2.817-1.789 8.847 8.847 0 0 1 9.301 1.79 8.532 8.532 0 0 1-6.059 14.593zm0 0" fill="#14a085"/><path d="M469.332 349.867h-76.797a8.534 8.534 0 1 1 0-17.066h76.797a8.533 8.533 0 1 1 0 17.066zm0 0" fill="#bdc3c7"/><path d="M324.266 452.266h-8.532a8.533 8.533 0 1 1 0-17.067h8.532a8.534 8.534 0 1 1 0 17.067zm0 0" fill="#f0c419"/><path d="M358.398 452.266a8.445 8.445 0 0 1-8.21-6.86 8.442 8.442 0 0 1 5.101-9.406 8.447 8.447 0 0 1 9.168 13.793 8.951 8.951 0 0 1-6.059 2.473zm0 0" fill="#14a085"/><path d="M469.332 452.266h-76.797a8.533 8.533 0 1 1 0-17.067h76.797a8.534 8.534 0 1 1 0 17.067zm0 0" fill="#bdc3c7"/><path d="M59.734 34.133c-14.14 0-25.601 11.46-25.601 25.601 0 14.137 11.46 25.598 25.601 25.598 14.137 0 25.598-11.46 25.598-25.598 0-14.14-11.46-25.601-25.598-25.601zm0 34.133a8.533 8.533 0 1 1 0-17.067c4.711 0 8.532 3.82 8.532 8.535 0 4.711-3.82 8.532-8.532 8.532zm0 0M128 34.133c-14.137 0-25.602 11.46-25.602 25.601 0 14.137 11.465 25.598 25.602 25.598s25.602-11.46 25.602-25.598c0-14.14-11.465-25.601-25.602-25.601zm0 34.133c-4.71 0-8.535-3.82-8.535-8.532a8.536 8.536 0 0 1 17.07 0c0 4.711-3.824 8.532-8.535 8.532zm0 0M196.266 34.133c-14.137 0-25.598 11.46-25.598 25.601 0 14.137 11.46 25.598 25.598 25.598 14.14 0 25.601-11.46 25.601-25.598 0-14.14-11.46-25.601-25.601-25.601zm0 34.133a8.532 8.532 0 0 1-8.532-8.532 8.533 8.533 0 1 1 17.067 0c0 4.711-3.82 8.532-8.535 8.532zm0 0M366.934 51.2h-85.332a8.534 8.534 0 1 0 0 17.066h85.332c4.71 0 8.53-3.82 8.53-8.532a8.533 8.533 0 0 0-8.53-8.535zm0 0M460.8 51.2h-59.734a8.533 8.533 0 0 0-8.53 8.534c0 4.711 3.82 8.532 8.53 8.532h59.735c4.71 0 8.531-3.82 8.531-8.532a8.533 8.533 0 0 0-8.531-8.535zm0 0"/><path d="M469.332 0H42.668C19.113.027.028 19.113 0 42.668v375.465c.027 23.554 19.113 42.64 42.668 42.668h204.797a8.534 8.534 0 1 0 0-17.067H42.668c-14.14 0-25.602-11.46-25.602-25.601V119.465h477.868v51.203a8.533 8.533 0 0 0 17.066 0v-128C511.973 19.113 492.887.028 469.332 0zM17.066 102.398v-59.73c0-14.14 11.461-25.602 25.602-25.602h426.664c14.14 0 25.602 11.461 25.602 25.602v59.73zm0 0"/><path d="M82.832 139.016a8.532 8.532 0 0 0-12.066 0l-25.598 25.601a8.532 8.532 0 0 0 0 12.067l25.598 25.597a8.538 8.538 0 0 0 11.964-.101 8.538 8.538 0 0 0 .102-11.965l-19.566-19.547 19.566-19.566a8.539 8.539 0 0 0 0-12.086zm0 0M147.566 202.281a8.532 8.532 0 0 0 12.067 0l25.601-25.597a8.54 8.54 0 0 0 0-12.067l-25.601-25.601a8.528 8.528 0 0 0-8.297-2.325 8.528 8.528 0 0 0-3.77 14.391l19.567 19.586-19.567 19.566a8.53 8.53 0 0 0 0 12.047zm0 0M131.813 137.387a8.536 8.536 0 0 0-11.45 3.813l-25.601 51.202a8.523 8.523 0 0 0-.461 6.516 8.525 8.525 0 0 0 4.285 4.934 8.42 8.42 0 0 0 3.812.949 8.534 8.534 0 0 0 7.68-4.719l25.602-51.2a8.533 8.533 0 0 0-3.868-11.495zm0 0M256 153.602h-42.668a8.532 8.532 0 0 0-8.531 8.53 8.533 8.533 0 0 0 8.531 8.536H256c4.71 0 8.535-3.82 8.535-8.535 0-4.711-3.824-8.531-8.535-8.531zm0 0M298.668 170.668c4.71 0 8.531-3.82 8.531-8.535 0-4.711-3.82-8.531-8.531-8.531h-8.535a8.532 8.532 0 0 0-8.531 8.53 8.533 8.533 0 0 0 8.53 8.536zm0 0M213.332 213.332h17.066a8.533 8.533 0 1 0 0-17.066h-17.066a8.533 8.533 0 0 0-8.531 8.535c0 4.71 3.82 8.531 8.531 8.531zm0 0M51.2 256h25.6c4.712 0 8.532-3.82 8.532-8.535 0-4.711-3.82-8.531-8.531-8.531H51.199a8.532 8.532 0 0 0-8.531 8.53A8.533 8.533 0 0 0 51.199 256zm0 0M102.398 247.465a8.534 8.534 0 0 0 8.536 8.535h68.265a8.534 8.534 0 1 0 0-17.066h-68.265a8.533 8.533 0 0 0-8.536 8.53zm0 0M247.465 238.934h-34.133a8.532 8.532 0 0 0-8.531 8.53 8.533 8.533 0 0 0 8.531 8.536h34.133a8.534 8.534 0 1 0 0-17.066zm0 0M51.2 324.266a8.533 8.533 0 0 0-8.532 8.535c0 4.71 3.82 8.531 8.531 8.531h25.602c4.71 0 8.531-3.82 8.531-8.531a8.533 8.533 0 0 0-8.531-8.535zm0 0M110.934 341.332h68.265a8.533 8.533 0 1 0 0-17.066h-68.265a8.534 8.534 0 1 0 0 17.066zm0 0M247.465 324.266h-34.133a8.533 8.533 0 0 0-8.531 8.535c0 4.71 3.82 8.531 8.531 8.531h34.133a8.533 8.533 0 1 0 0-17.066zm0 0M247.465 281.602h-68.266a8.532 8.532 0 0 0-8.531 8.53 8.533 8.533 0 0 0 8.531 8.536h68.266a8.534 8.534 0 1 0 0-17.066zm0 0M153.602 290.133c0-4.711-3.82-8.531-8.536-8.531H51.2a8.532 8.532 0 0 0-8.531 8.53 8.533 8.533 0 0 0 8.531 8.536h93.867a8.534 8.534 0 0 0 8.536-8.535zm0 0M486.398 196.266h-187.73c-14.14 0-25.602 11.46-25.602 25.601V256a25.595 25.595 0 0 0 17.067 24.02v20.218a25.6 25.6 0 0 0-17.067 24.028v34.132a25.6 25.6 0 0 0 17.067 24.024v20.215a25.6 25.6 0 0 0-17.067 24.031v34.133c0 14.136 11.461 25.597 25.602 25.597h187.73c14.141 0 25.602-11.46 25.602-25.597v-34.133a25.595 25.595 0 0 0-17.066-24.031v-20.235A25.595 25.595 0 0 0 512 358.398v-34.132a25.594 25.594 0 0 0-17.066-24.028v-20.234A25.598 25.598 0 0 0 512 256v-34.133c0-14.14-11.46-25.601-25.602-25.601zm-8.53 102.402H307.198v-17.066h170.668zm0 102.398H307.198V384h170.668zm17.066 59.735c0 4.71-3.82 8.531-8.536 8.531h-187.73a8.533 8.533 0 0 1-8.535-8.531v-34.133a8.534 8.534 0 0 1 8.535-8.535h187.73a8.534 8.534 0 0 1 8.536 8.535zm-8.536-93.867h-187.73a8.534 8.534 0 0 1-8.535-8.536v-34.132c0-4.711 3.82-8.532 8.535-8.532h187.73a8.533 8.533 0 0 1 8.536 8.532v34.132a8.534 8.534 0 0 1-8.536 8.536zM494.934 256c0 4.71-3.82 8.535-8.536 8.535h-187.73a8.536 8.536 0 0 1-8.535-8.535v-34.133a8.534 8.534 0 0 1 8.535-8.535h187.73a8.534 8.534 0 0 1 8.536 8.535zm0 0"/><path d="M324.266 230.398h-8.532a8.534 8.534 0 1 0 0 17.067h8.532a8.533 8.533 0 1 0 0-17.067zm0 0M352.34 232.875a8.811 8.811 0 0 0-2.473 6.059 8.984 8.984 0 0 0 2.473 6.058 9.922 9.922 0 0 0 2.816 1.793 8.503 8.503 0 0 0 3.242.68 8.447 8.447 0 0 0 8.536-8.531 8.797 8.797 0 0 0-2.477-6.059 8.937 8.937 0 0 0-12.117 0zm0 0M469.332 230.398h-76.797a8.534 8.534 0 1 0 0 17.067h76.797a8.533 8.533 0 1 0 0-17.067zm0 0M324.266 332.8h-8.532a8.533 8.533 0 1 0 0 17.067h8.532a8.534 8.534 0 1 0 0-17.066zm0 0M355.156 333.398a10.163 10.163 0 0 0-2.816 1.875 8.818 8.818 0 0 0-2.473 6.059 8.533 8.533 0 1 0 17.067 0 8.804 8.804 0 0 0-2.477-6.059 8.712 8.712 0 0 0-9.3-1.875zm0 0M469.332 332.8h-76.797a8.533 8.533 0 1 0 0 17.067h76.797a8.534 8.534 0 1 0 0-17.066zm0 0M324.266 435.2h-8.532a8.534 8.534 0 1 0 0 17.066h8.532a8.533 8.533 0 1 0 0-17.067zm0 0M352.34 437.676a8.811 8.811 0 0 0-2.473 6.058 8.984 8.984 0 0 0 2.473 6.059 9.922 9.922 0 0 0 2.816 1.793 8.577 8.577 0 0 0 3.242.68 8.447 8.447 0 0 0 8.536-8.532 8.797 8.797 0 0 0-2.477-6.058 8.929 8.929 0 0 0-12.117 0zm0 0M469.332 435.2h-76.797a8.534 8.534 0 1 0 0 17.066h76.797a8.533 8.533 0 1 0 0-17.067zm0 0"/></svg></svg>